# AST/ASF file generated using VICON BodyLanguage
# -----------------------------------------------
:version 1.10
:name VICON
:units
  mass 1.0
  length 0.45
  angle deg
:documentation
   .ast/.asf automatically generated from VICON data using
   VICON BodyBuilder and BodyLanguage model FoxedUp or BRILLIANT.MOD
:root
   order TX TY TZ RX RY RZ
   axis XYZ
   position 0 0 0  
   orientation 0 0 0 
:bonedata
  begin
     id 1 
     name lhipjoint
     direction 0.541323 -0.757556 0.364798 
     length 2.47576 
     axis 0 0 0  XYZ
  end
  begin
     id 2 
     name lfemur
     direction 0.34202 -0.939693 0  
     length 7.46493  
     axis 0 0 20  XYZ
    dof rx ry rz
    limits (-160.0 20.0)
           (-70.0 70.0)
           (-60.0 70.0)
  end
  begin
     id 3 
     name ltibia
     direction 0.34202 -0.939693 0   
     length 7.73805   
     axis 0 0 20   XYZ
    dof rx
    limits (-10.0 170.0)
  end
  begin
     id 4 
     name lfoot
     direction 0.107174 -0.294458 0.949636   
     length 2.25864   
     axis -90 7.62852e-016 20   XYZ
    dof rx rz
    limits (-45.0 90.0)
           (-70.0 20.0)
  end
  begin
     id 5 
     name ltoes
     direction 1.53606e-011 -4.21934e-011 1   
     length 1.12451   
     axis -90 7.62852e-016 20   XYZ
    dof rx
    limits (-90.0 20.0)
  end
  begin
     id 6 
     name rhipjoint
     direction -0.524745 -0.766967 0.36933   
     length 2.44538  
     axis 0 0 0  XYZ 
  end
  begin
     id 7 
     name rfemur
     direction -0.34202 -0.939693 0   
     length 7.61604   
     axis 0 0 -20   XYZ
    dof rx ry rz
    limits (-160.0 20.0)
           (-70.0 70.0)
           (-70.0 60.0)
  end
  begin
     id 8 
     name rtibia
     direction -0.34202 -0.939693 0   
     length 7.61056   
     axis 0 0 -20   XYZ
    dof rx
    limits (-10.0 170.0)
 end
 begin
     id 9 
     name rfoot
     direction -0.12616 -0.346623 0.929482   
     length 2.46372  
     axis -90 -7.62852e-016 -20   XYZ
    dof rx rz
    limits (-45.0 90.0)
           (-20.0 70.0)
  end
  begin
     id 10 
     name rtoes
     direction -1.53531e-011 -4.22004e-011 1   
     length 1.21611   
     axis -90 -7.62852e-016 -20   XYZ
    dof rx
    limits (-90.0 20.0)
  end
  begin
     id 11 
     name lowerback
     direction -0.000778023 0.997293 -0.0735223   
     length 2.06139   
     axis 0 0 0   XYZ
    dof rx ry rz
    limits (-20.0 45.0)
           (-30.0 30.0)
           (-30.0 30.0)
  end
  begin
     id 12 
     name upperback
     direction 0.0222598 0.999722 -0.0078355   
     length 2.06383   
     axis 0 0 0   XYZ
    dof rx ry rz
    limits (-20.0 45.0)
           (-30.0 30.0)
           (-30.0 30.0)
  end
  begin
     id 13 
     name thorax
     direction 0.0219654 0.999405 0.0265994   
     length 2.07163   
     axis 0 0 0   XYZ
    dof rx ry rz
    limits (-20.0 45.0)
           (-30.0 30.0)
           (-30.0 30.0)
  end
  begin
     id 14 
     name lowerneck
     direction 0.0213282 0.988147 0.15202   
     length 1.75969   
     axis 0 0 0   XYZ
    dof rx ry rz
    limits (-20.0 45.0)
           (-30.0 30.0)
           (-30.0 30.0)
  end
  begin
     id 15 
     name upperneck
     direction -0.0546456 0.982624 -0.177379   
     length 1.79244   
     axis 0 0 0   XYZ
    dof rx ry rz
    limits (-20.0 45.0)
           (-30.0 30.0)
           (-30.0 30.0)
  end
  begin
     id 16
     name head
     direction -0.0199987 0.996855 -0.076686  
     length 1.80555  
     axis 0 0 0   XYZ
    dof rx ry rz
    limits (-20.0 45.0)
           (-30.0 30.0)
           (-30.0 30.0)
  end
  begin
     id 17 
     name lclavicle
     direction 0.929565 0.363219 -0.063096  
     length 3.55722  
     axis 0 0 0   XYZ
    dof ry rz
    limits (-20.0 10.0)
           (0.0 20.0)
  end
  begin
     id 18 
     name lhumerus
     direction 1 -4.48993e-011 -2.36203e-027   
     length 4.92785   
     axis 180 -30 -90   XYZ
    dof rx ry rz
    limits (-60.0 90.0)
           (-90.0 90.0)
           (-90.0 90.0)
  end
  begin
     id 19
     name lradius
     direction 1 -4.48947e-011 2.02997e-027   
     length 3.44052   
     axis 180 -30 -90   XYZ
    dof rx
    limits (-10.0 170.0)
  end
  begin
     id 20
     name lwrist
     direction 1 -4.48962e-011 1.45991e-027   
     length 1.72026   
     axis 1.49639e-024 90 90   XYZ
    dof ry
    limits (-180.0 0.0)
 end
  begin
     id 21 
     name lhand
     direction 1 -4.48984e-011 2.91906e-027   
     length 0.654326   
     axis -1.863e-015 90 90   XYZ
    dof rx rz
    limits (-90.0 90.0)
           (-45.0 45.0)
  end
  begin
     id 22 
     name lfingers
     direction 1 -4.48961e-011 5.83968e-027   
     length 0.527534   
     axis -3.72598e-015 90 90   XYZ
    dof rx
    limits (0.0 90.0)
  end
  begin
     id 23
     name lthumb
     direction 0.707107 -6.34963e-011 0.707107   
     length 0.757437   
     axis -90 45 -6.68868e-015   XYZ
    dof rx rz
    limits (-45.0 45.0)
           (-45.0 45.0)
  end
  begin
     id 24 
     name rclavicle
     direction -0.902944 0.422599 -0.0781198   
     length 3.54432  
     axis 0 0 0   XYZ 
    dof ry rz
    limits (-10.0 20.0)
           (-20.0 0.0)
  end
  begin
     id 25 
     name rhumerus
     direction -1 -4.48953e-011 -4.75835e-028  
     length 5.09181   
     axis 180 30 90   XYZ
    dof rx ry rz
    limits (-90.0 60.0)
           (-90.0 90.0)
           (-90.0 90.0)
  end
  begin
     id 26 
     name rradius
     direction -1 -4.48986e-011 -3.25889e-027   
     length 3.49865   
     axis 180 30 90   XYZ
    dof rx
    limits (-10.0 170.0)
  end
  begin
     id 27 
     name rwrist
     direction -1 -4.48963e-011 1.45989e-027   
     length 1.74933   
     axis 1.49639e-024 -90 -90   XYZ
    dof ry
    limits (-180.0 0.0)
  end
  begin
     id 28
     name rhand
     direction -1 -4.49003e-011 2.91844e-027   
     length 0.66641   
     axis -1.863e-015 -90 -90   XYZ
    dof rx rz
    limits (-90.0 90.0)
           (-45.0 45.0)
  end
  begin
     id 29
     name rfingers
     direction -1 -4.48973e-011 5.83886e-027   
     length 0.537277   
     axis -3.72598e-015 -90 -90   XYZ
    dof rx
    limits (0.0 90.0)
  end
  begin
     id 30
     name rthumb
     direction -0.707107 -6.34976e-011 0.707107   
     length 0.771425   
     axis -90 -45 6.68868e-015   XYZ
    dof rx rz
    limits (-45.0 45.0)
           (-45.0 45.0)
  end
:hierarchy
  begin
    root lhipjoint rhipjoint lowerback
    lhipjoint lfemur
    lfemur ltibia
    ltibia lfoot
    lfoot ltoes
    rhipjoint rfemur
    rfemur rtibia
    rtibia rfoot
    rfoot rtoes
    lowerback upperback
    upperback thorax
    thorax lowerneck lclavicle rclavicle
    lowerneck upperneck
    upperneck head
    lclavicle lhumerus
    lhumerus lradius
    lradius lwrist
    lwrist lhand lthumb
    lhand lfingers
    rclavicle rhumerus
    rhumerus rradius
    rradius rwrist
    rwrist rhand rthumb
    rhand rfingers
  end

#!OML:ASF H:\LiuWeirdWalks\Patient Classification 1\Patient 1\Session 1\male.ASF
:FULLY-SPECIFIED
:DEGREES
1
root -0.587235 17.8753 -29.8451 2.42471 2.20327 -1.04375
lowerback 4.30194 0.674827 -0.313748
upperback -2.79025 0.96293 1.63212
thorax -5.33866 0.521525 1.78359
lowerneck -14.8993 0.349905 7.19316
upperneck 20.5207 0.386171 -7.33335
head 8.89305 -0.0420682 -3.67094
rclavicle -1.26104e-014 -7.15625e-015
rhumerus -42.1184 -12.8387 -74.8854
rradius 26.49
rwrist -4.17935
rhand -15.7909 -3.80815
rfingers 7.12502
rthumb 10.4018 -33.5309
lclavicle -1.26104e-014 -7.15625e-015
lhumerus -37.6387 -2.78464 84.3415
lradius 30.2694
lwrist 10.0441
lhand -13.0228 0.885503
lfingers 7.12502
lthumb 13.0712 30.4559
rfemur -9.95825 -2.91257 20.7164
rtibia 31.7607
rfoot -16.398 -22.2201
rtoes -1.49684
lfemur -8.8522 -1.66795 -16.3235
ltibia 27.5833
lfoot -12.0158 17.4266
ltoes -8.20723
2
root -0.582361 17.8747 -29.8328 2.444 2.194 -1.03423
lowerback 4.21985 0.704815 -0.294599
upperback -2.82122 1.00228 1.59228
thorax -5.32439 0.539642 1.72863
lowerneck -14.8136 0.312774 7.16988
upperneck 20.582 0.33366 -7.26897
head 8.89387 -0.0599882 -3.65136
rclavicle 4.38569e-015 -1.15295e-014
rhumerus -42.1403 -12.6788 -75.0045
rradius 26.6734
rwrist -4.33347
rhand -15.8103 -3.80374
rfingers 7.12502
rthumb 10.3831 -33.5274
lclavicle 4.38569e-015 -1.15295e-014
lhumerus -37.7363 -2.92533 84.4904
lradius 30.2291
lwrist 10.0433
lhand -13.0126 0.742836
lfingers 7.12502
lthumb 13.0811 30.3126
rfemur -9.94059 -2.91753 20.6832
rtibia 31.7717
rfoot -16.4203 -22.2083
rtoes -1.53731
lfemur -8.81129 -1.68339 -16.3601
ltibia 27.5625
lfoot -12.0363 17.4722
ltoes -8.24557
3
root -0.576053 17.8737 -29.8176 2.44728 2.12852 -0.999195
lowerback 4.11442 0.747289 -0.291308
upperback -2.8162 1.05655 1.55053
thorax -5.25976 0.565313 1.67972
lowerneck -14.7931 0.280496 7.10896
upperneck 20.6481 0.287838 -7.18199
head 8.90909 -0.0762938 -3.61764
rclavicle -1.58407e-015 -1.63003e-014
rhumerus -42.0988 -12.5232 -75.1211
rradius 26.8464
rwrist -4.4888
rhand -15.8443 -3.83971
rfingers 7.12502
rthumb 10.3504 -33.565
lclavicle -1.58407e-015 -1.63003e-014
lhumerus -37.7898 -3.02595 84.6366
lradius 30.1857
lwrist 10.0334
lhand -12.9934 0.68835
lfingers 7.12502
lthumb 13.0995 30.2569
rfemur -9.90577 -2.92331 20.6078
rtibia 31.7976
rfoot -16.442 -22.1462
rtoes -1.60974
lfemur -8.71863 -1.67243 -16.4349
ltibia 27.5187
lfoot -12.0614 17.5477
ltoes -8.26402
4
root -0.570123 17.8728 -29.8033 2.45423 2.09022 -0.938097
lowerback 4.01623 0.77262 -0.320416
upperback -2.77984 1.08576 1.51384
thorax -5.16636 0.579573 1.65664
lowerneck -14.8748 0.258916 7.02324
upperneck 20.7174 0.256092 -7.09366
head 8.94556 -0.0893121 -3.57887
rclavicle -2.09966e-015 -4.37326e-015
rhumerus -41.9669 -12.3518 -75.2516
rradius 27.0171
rwrist -4.66189
rhand -15.9035 -3.92392
rfingers 7.12502
rthumb 10.2932 -33.652
lclavicle -2.09966e-015 -4.37326e-015
lhumerus -37.7788 -3.07656 84.7784
lradius 30.1342
lwrist 9.98438
lhand -12.9866 0.649866
lfingers 7.12502
lthumb 13.1061 30.218
rfemur -9.87596 -2.95009 20.5046
rtibia 31.8254
rfoot -16.4541 -22.0886
rtoes -1.69255
lfemur -8.63786 -1.66915 -16.5362
ltibia 27.4758
lfoot -12.0813 17.6052
ltoes -8.30123
5
root -0.564379 17.8719 -29.7892 2.458 2.05362 -0.865197
lowerback 3.92269 0.788599 -0.367323
upperback -2.71514 1.10149 1.48398
thorax -5.04611 0.587637 1.65197
lowerneck -15.0414 0.258152 6.95528
upperneck 20.775 0.25056 -7.03784
head 8.99595 -0.0934024 -3.55204
rclavicle -2.32951e-015 -8.34896e-015
rhumerus -41.7584 -12.1786 -75.3823
rradius 27.1669
rwrist -4.80692
rhand -15.9461 -3.95562
rfingers 7.12502
rthumb 10.2521 -33.6858
lclavicle -2.32951e-015 -8.34896e-015
lhumerus -37.7178 -3.07712 84.9102
lradius 30.0964
lwrist 9.95562
lhand -12.9636 0.679562
lfingers 7.12502
lthumb 13.1283 30.2463
rfemur -9.84431 -2.98338 20.3872
rtibia 31.8578
rfoot -16.4636 -22.0244
rtoes -1.77529
lfemur -8.55291 -1.66653 -16.6502
ltibia 27.4293
lfoot -12.1022 17.6608
ltoes -8.34445
6
root -0.559517 17.8711 -29.7762 2.46207 2.0368 -0.802757
lowerback 3.84526 0.810688 -0.406279
upperback -2.63614 1.12569 1.44843
thorax -4.92021 0.599379 1.63621
lowerneck -15.2781 0.247502 6.9132
upperneck 20.8438 0.223826 -6.99537
head 9.06154 -0.107733 -3.53784
rclavicle -1.9133e-014 7.95139e-016
rhumerus -41.5176 -12.0688 -75.5079
rradius 27.3142
rwrist -4.95264
rhand -15.9968 -3.97109
rfingers 7.12502
rthumb 10.2032 -33.7037
lclavicle -1.9133e-014 7.95139e-016
lhumerus -37.6186 -3.11624 85.0422
lradius 30.0651
lwrist 9.91707
lhand -12.931 0.692457
lfingers 7.12502
lthumb 13.1598 30.2572
rfemur -9.81574 -3.0154 20.2876
rtibia 31.89
rfoot -16.471 -21.9808
rtoes -1.85033
lfemur -8.48142 -1.67437 -16.747
ltibia 27.3905
lfoot -12.1233 17.7049
ltoes -8.3906
7
root -0.555747 17.8703 -29.7647 2.46944 2.05632 -0.756627
lowerback 3.78345 0.815678 -0.445515
upperback -2.55135 1.12794 1.42963
thorax -4.79696 0.600489 1.6397
lowerneck -15.5508 0.240698 6.85461
upperneck 20.9102 0.205361 -6.95681
head 9.13373 -0.120404 -3.52164
rclavicle 8.10048e-015 2.0276e-014
rhumerus -41.2411 -11.9475 -75.6284
rradius 27.4489
rwrist -5.09436
rhand -16.0422 -3.93899
rfingers 7.12502
rthumb 10.1594 -33.6737
lclavicle 8.10048e-015 2.0276e-014
lhumerus -37.5024 -3.12772 85.1738
lradius 30.0445
lwrist 9.87669
lhand -12.8899 0.715027
lfingers 7.12502
lthumb 13.1993 30.2772
rfemur -9.7907 -3.04814 20.2154
rtibia 31.9157
rfoot -16.4715 -21.9719
rtoes -1.9259
lfemur -8.43285 -1.69964 -16.8191
ltibia 27.3655
lfoot -12.1461 17.7307
ltoes -8.43546
